<?xml version="1.0" encoding="UTF-8"?>
<svg id="Camada_2" data-name="Camada 2" xmlns="http://www.w3.org/2000/svg" viewBox="0 0 113.24 109.25">
  <defs>
    <style>
      .cls-1 {
        fill: #fff;
      }
    </style>
  </defs>
  <g id="Camada_1-2" data-name="Camada 1">
    <path class="cls-1" d="M109.24,54.63c0,28.97-20.33,53.99-50.62,54.62C29.76,109.84,0,82.56,0,54.63S29.76-.58,58.62,0c30.29.62,50.62,25.64,50.62,54.62Z"/>
    <path d="M31.82,71.06c-.27,1.72-.42,3.19-.44,4.42-.02,1.23.07,2.47.26,3.72.25,1.63,1.03,2.98,2.39,4.08,1.36,1.1,3.09,1.64,5.25,1.64.58,0,.96.13,1.15.38.19.25.3.56.31.92.01.36-.11.67-.36.92-.25.25-.74.38-1.46.38-.29,0-.67-.02-1.13-.05-.47-.04-1.13-.05-2-.05s-1.95-.02-3.24-.05c-1.3-.04-2.92-.05-4.86-.05-1.66,0-3.42.04-5.29.11-1.87.07-3.64.11-5.29.11-.72,0-1.19-.16-1.41-.49-.22-.32-.33-.6-.34-.81-.01-.36.08-.67.29-.92.2-.25.66-.38,1.38-.38,2.09,0,4.06-.74,5.82-2.24,1.76-1.5,3.28-4.46,4.24-8.93,4.07-20.83,10.89-34.66,22.71-52.11-.65-.7-1.13-1.32-1.42-1.88-.29-.56-.42-.98-.38-1.26.03-.21.13-.38.3-.53.17-.14.56-.35,1.18-.63,1.14-.42,2.53-1.26,4.1-2.54.86-.71,1.54-1.31,2.04-1.81.5-.5.94-1.01,1.32-1.5.44-.57.79-.95,1.05-1.13.25-.18.45-.27.6-.27.58,0,1.02.71,1.24,2.1.22,1.39.81,3.47,1.59,6.21,5.19,22.87,12.38,38.99,24.82,59.14,1.01,1.71,1.9,2.99,2.73,3.87.82.88,1.68,1.58,2.59,2.09.91.51,1.83.86,2.78,1.04.95.18,1.79.32,2.51.38,1,.09,1.54.47,1.57,1.2,0,.29-.07.6-.25.92-.18.32-.59.49-1.24.49-.94,0-2.09-.07-3.35-.11-1.12-.03-2.65-.02-4.48-.05-1.84-.04-4.01-.05-6.53-.05s-4.7.02-6.32.05c-1.62.04-2.92.05-3.89.05s-1.75.02-2.32.05c-.58.04-1.08.05-1.51.05-.58,0-.99-.13-1.24-.38-.26-.25-.39-.56-.4-.92-.01-.36.1-.67.34-.92.24-.25.72-.38,1.44-.38.79,0,1.64-.02,2.53-.05.9-.04,1.72-.2,2.45-.49.73-.29,1.34-.71,1.79-1.26.45-.55.63-1.33.49-2.37-.11-.88-.54-2.06-1.3-3.55-.76-1.48-1.6-2.97-2.49-4.46-3.29-5.37-5.12-8.09-8.28-13.44h-30.02c-.94,4.68-1.23,7.05-2.02,11.76ZM34.46,55.97h27.54c-5.16-10.48-8.79-19.64-10.82-31.2-6.77,9.67-13.76,19.58-16.72,31.2Z"/>
  </g>
</svg>